<svg width="308.99" height="308.99" xmlns="http://www.w3.org/2000/svg" xml:space="preserve" version="1.1" fill-opacity="0">
 <g>
  <rect stroke="#79b106" stroke-width="12" rx="12" id="svg_6" height="286.07095" width="293.00001" y="11.45952" x="7.995" fill="#d00"/>
  <g stroke="null" id="svg_1" fill="#83bd0c" fill-opacity="1">
   <g stroke="null" id="svg_2">
    <path stroke="null" id="svg_3" d="m280.25324,92.69831l-121.14986,-54.02629c-2.933,-1.31813 -6.28536,-1.31813 -9.23379,0l-121.14386,54.02629c-3.9544,1.76065 -6.56579,5.63615 -6.71244,9.9679c-0.1415,4.32317 2.17316,8.36247 5.9972,10.3967l121.14214,64.60566c1.67061,0.89619 3.50158,1.33443 5.33771,1.33443c1.84556,0 3.67396,-0.43823 5.34714,-1.33443l121.14815,-64.60566c3.82061,-2.03423 6.13785,-6.07353 5.99892,-10.3967c-0.16552,-4.33174 -2.77091,-8.20724 -6.73131,-9.9679z"/>
    <path stroke="null" id="svg_4" d="m270.29821,141.0387l-115.81473,61.78158l-115.79586,-61.78158c-5.54353,-2.95787 -12.40777,-0.85932 -15.34591,4.67393c-2.95872,5.53067 -0.86017,12.39319 4.66792,15.34334l121.14214,64.62367c1.67061,0.89019 3.50158,1.33357 5.33771,1.33357c1.84556,0 3.67396,-0.43738 5.34714,-1.33357l121.14815,-64.62367c5.51523,-2.95015 7.61121,-9.81267 4.66964,-15.34334c-2.96044,-5.5341 -9.82982,-7.63265 -15.3562,-4.67393z"/>
    <path stroke="null" id="svg_5" d="m270.29821,185.3518l-115.81473,61.76099l-115.79586,-61.76099c-5.54353,-2.96044 -12.40777,-0.85932 -15.34591,4.66621c-2.95872,5.53067 -0.86017,12.40005 4.66792,15.34591l121.14214,64.60308c1.67061,0.89619 3.50158,1.33957 5.33771,1.33957c1.84556,0 3.67396,-0.43738 5.34714,-1.33957l121.14815,-64.60308c5.51523,-2.94586 7.61121,-9.81439 4.66964,-15.34591c-2.96044,-5.52552 -9.82039,-7.6275 -15.3562,-4.66621z"/>
   </g>
  </g>
 </g>
</svg>